<svg viewBox="0 0 33 33" xmlns="http://www.w3.org/2000/svg">
    <path d="M23.4167 20.6667H21.9683L21.455 20.1717C23.3138 18.0157 24.3354 15.2633 24.3333 12.4167C24.3333 10.0598 23.6344 7.75581 22.325 5.79612C21.0156 3.83644 19.1545 2.30905 16.977 1.4071C14.7995 0.505158 12.4035 0.269168 10.0918 0.728975C7.78024 1.18878 5.65689 2.32373 3.99032 3.99031C2.32374 5.65689 1.18879 7.78023 0.728981 10.0918C0.269174 12.4034 0.505163 14.7995 1.40711 16.977C2.30905 19.1545 3.83644 21.0156 5.79613 22.325C7.75581 23.6344 10.0598 24.3333 12.4167 24.3333C15.3683 24.3333 18.0817 23.2517 20.1717 21.455L20.6667 21.9683V23.4167L29.8333 32.565L32.565 29.8333L23.4167 20.6667ZM12.4167 20.6667C7.85167 20.6667 4.16667 16.9817 4.16667 12.4167C4.16667 7.85167 7.85167 4.16667 12.4167 4.16667C16.9817 4.16667 20.6667 7.85167 20.6667 12.4167C20.6667 16.9817 16.9817 20.6667 12.4167 20.6667Z"/>
</svg>
